<?xml version="1.0" encoding="UTF-8" standalone="no"?>
<!-- Created with Inkscape (http://www.inkscape.org/) -->

<svg
   xmlns:dc="http://purl.org/dc/elements/1.1/"
   xmlns:cc="http://creativecommons.org/ns#"
   xmlns:rdf="http://www.w3.org/1999/02/22-rdf-syntax-ns#"
   xmlns:svg="http://www.w3.org/2000/svg"
   xmlns="http://www.w3.org/2000/svg"
   xmlns:xlink="http://www.w3.org/1999/xlink"
   xmlns:sodipodi="http://sodipodi.sourceforge.net/DTD/sodipodi-0.dtd"
   xmlns:inkscape="http://www.inkscape.org/namespaces/inkscape"
   width="297mm"
   height="210mm"
   viewBox="0 0 1052.3622 744.09448"
   id="svg2"
   version="1.1"
   inkscape:version="0.91 r13725"
   sodipodi:docname="CanBrexitBeStopped.svg"
   inkscape:export-filename="/home/kim/Documents/Brexit/CanBrexitBeStopped.png"
   inkscape:export-xdpi="300.00443"
   inkscape:export-ydpi="300.00443">
  <defs
     id="defs4">
    <filter
       inkscape:collect="always"
       style="color-interpolation-filters:sRGB"
       id="filter5503"
       x="-0.048083311"
       width="1.0961666"
       y="-0.029237622"
       height="1.0584752">
      <feGaussianBlur
         inkscape:collect="always"
         stdDeviation="5.9954539"
         id="feGaussianBlur5505" />
    </filter>
    <filter
       inkscape:collect="always"
       style="color-interpolation-filters:sRGB"
       id="filter5575"
       x="-0.10994691"
       width="1.2198938"
       y="-0.10672502"
       height="1.21345">
      <feGaussianBlur
         inkscape:collect="always"
         stdDeviation="5.7878353"
         id="feGaussianBlur5577" />
    </filter>
  </defs>
  <sodipodi:namedview
     id="base"
     pagecolor="#ffffff"
     bordercolor="#666666"
     borderopacity="1.0"
     inkscape:pageopacity="0.0"
     inkscape:pageshadow="2"
     inkscape:zoom="0.68706087"
     inkscape:cx="575.41054"
     inkscape:cy="391.44384"
     inkscape:document-units="px"
     inkscape:current-layer="layer1"
     showgrid="false"
     inkscape:object-nodes="true"
     inkscape:window-width="1753"
     inkscape:window-height="860"
     inkscape:window-x="110"
     inkscape:window-y="147"
     inkscape:window-maximized="0" />
  <metadata
     id="metadata7">
    <rdf:RDF>
      <cc:Work
         rdf:about="">
        <dc:format>image/svg+xml</dc:format>
        <dc:type
           rdf:resource="http://purl.org/dc/dcmitype/StillImage" />
        <dc:title></dc:title>
      </cc:Work>
    </rdf:RDF>
  </metadata>
  <g
     inkscape:label="Layer 1"
     inkscape:groupmode="layer"
     id="layer1"
     transform="translate(0,-308.26772)">
    <rect
       style="color:#000000;clip-rule:nonzero;display:inline;overflow:visible;visibility:visible;opacity:1;isolation:auto;mix-blend-mode:normal;color-interpolation:sRGB;color-interpolation-filters:linearRGB;solid-color:#000000;solid-opacity:1;fill:#ffffff;fill-opacity:1;fill-rule:nonzero;stroke:none;stroke-width:1px;stroke-linecap:butt;stroke-linejoin:miter;stroke-miterlimit:4;stroke-dasharray:none;stroke-dashoffset:0;stroke-opacity:1;color-rendering:auto;image-rendering:auto;shape-rendering:auto;text-rendering:auto;enable-background:accumulate"
       id="rect6126"
       width="1070.1669"
       height="760.89954"
       x="-2.9109502"
       y="305.98785"
       inkscape:export-xdpi="300.00443"
       inkscape:export-ydpi="300.00443" />
    <path
       style="fill:#ffffff;fill-rule:evenodd;stroke:#ffffff;stroke-width:0.67879021px;stroke-linecap:butt;stroke-linejoin:miter;stroke-opacity:1"
       d="m 52.157105,677.69127 249.614795,0 0.24698,358.87703 -249.865343,0 0.0028,-285.41799 7.32e-4,-73.45904"
       id="path4635"
       inkscape:connector-curvature="0"
       sodipodi:nodetypes="cccccc" />
    <rect
       style="color:#000000;clip-rule:nonzero;display:inline;overflow:visible;visibility:visible;opacity:1;isolation:auto;mix-blend-mode:normal;color-interpolation:sRGB;color-interpolation-filters:linearRGB;solid-color:#000000;solid-opacity:1;fill:#803300;fill-opacity:1;fill-rule:nonzero;stroke:none;stroke-width:1px;stroke-linecap:butt;stroke-linejoin:miter;stroke-miterlimit:4;stroke-dasharray:none;stroke-dashoffset:0;stroke-opacity:1;color-rendering:auto;image-rendering:auto;shape-rendering:auto;text-rendering:auto;enable-background:accumulate"
       id="rect4213"
       width="1052.3622"
       height="149.00703"
       x="0"
       y="309.98785" />
    <rect
       y="437.30542"
       x="695.41949"
       height="492.14294"
       width="299.2533"
       id="rect4187"
       style="color:#000000;clip-rule:nonzero;display:inline;overflow:visible;visibility:visible;opacity:0.631;isolation:auto;mix-blend-mode:normal;color-interpolation:sRGB;color-interpolation-filters:linearRGB;solid-color:#000000;solid-opacity:1;fill:#9c6000;fill-opacity:1;fill-rule:nonzero;stroke:none;stroke-width:1px;stroke-linecap:butt;stroke-linejoin:miter;stroke-miterlimit:4;stroke-dasharray:none;stroke-dashoffset:0;stroke-opacity:1;color-rendering:auto;image-rendering:auto;shape-rendering:auto;text-rendering:auto;enable-background:accumulate;filter:url(#filter5503)"
       transform="matrix(0.99723313,0,0,1.0768892,29.995826,31.2686)" />
    <rect
       style="color:#000000;clip-rule:nonzero;display:inline;overflow:visible;visibility:visible;opacity:1;isolation:auto;mix-blend-mode:normal;color-interpolation:sRGB;color-interpolation-filters:linearRGB;solid-color:#000000;solid-opacity:1;fill:#f3be50;fill-opacity:1;fill-rule:nonzero;stroke:none;stroke-width:1px;stroke-linecap:butt;stroke-linejoin:miter;stroke-miterlimit:4;stroke-dasharray:none;stroke-dashoffset:0;stroke-opacity:1;color-rendering:auto;image-rendering:auto;shape-rendering:auto;text-rendering:auto;enable-background:accumulate"
       id="rect4185"
       width="299.2533"
       height="529.76294"
       x="713.07715"
       y="488.45697" />
    <flowRoot
       xml:space="preserve"
       id="flowRoot4142"
       style="color:#000000;font-style:normal;font-variant:normal;font-weight:bold;font-stretch:normal;font-size:24.06916428px;line-height:125%;font-family:'Liberation Serif';-inkscape-font-specification:'Liberation Serif, Bold';text-align:start;letter-spacing:0px;word-spacing:0px;writing-mode:lr-tb;text-anchor:start;clip-rule:nonzero;display:inline;overflow:visible;visibility:visible;opacity:1;isolation:auto;mix-blend-mode:normal;color-interpolation:sRGB;color-interpolation-filters:linearRGB;solid-color:#000000;solid-opacity:1;fill:#612700;fill-opacity:1;fill-rule:nonzero;stroke:none;stroke-width:1.06974065px;stroke-linecap:butt;stroke-linejoin:miter;stroke-miterlimit:4;stroke-dasharray:none;stroke-dashoffset:0;stroke-opacity:1;color-rendering:auto;image-rendering:auto;shape-rendering:auto;text-rendering:auto;enable-background:accumulate"
       transform="matrix(0.93480604,0,0,0.93480604,-19.419642,353.85981)"><flowRegion
         id="flowRegion4144"><rect
           id="rect4146"
           width="463.5686"
           height="163.63373"
           x="74.015244"
           y="141.20667"
           style="color:#000000;font-style:normal;font-variant:normal;font-weight:bold;font-stretch:normal;font-size:24.06916428px;line-height:125%;font-family:'Liberation Serif';-inkscape-font-specification:'Liberation Serif, Bold';text-align:start;writing-mode:lr-tb;text-anchor:start;clip-rule:nonzero;display:inline;overflow:visible;visibility:visible;isolation:auto;mix-blend-mode:normal;color-interpolation:sRGB;color-interpolation-filters:linearRGB;solid-color:#000000;solid-opacity:1;fill:#612700;fill-opacity:1;fill-rule:nonzero;stroke:none;stroke-width:1.06974065px;stroke-linecap:butt;stroke-linejoin:miter;stroke-miterlimit:4;stroke-dasharray:none;stroke-dashoffset:0;stroke-opacity:1;color-rendering:auto;image-rendering:auto;shape-rendering:auto;text-rendering:auto;enable-background:accumulate" /></flowRegion><flowPara
         style="color:#000000;font-style:italic;font-variant:normal;font-weight:normal;font-stretch:normal;font-size:24.06916428px;line-height:125%;font-family:'Liberation Serif';-inkscape-font-specification:'Liberation Serif Italic';text-align:start;writing-mode:lr-tb;text-anchor:start;clip-rule:nonzero;display:inline;overflow:visible;visibility:visible;isolation:auto;mix-blend-mode:normal;color-interpolation:sRGB;color-interpolation-filters:linearRGB;solid-color:#000000;solid-opacity:1;fill:#612700;fill-opacity:1;fill-rule:nonzero;stroke:none;stroke-width:1.06974065px;stroke-linecap:butt;stroke-linejoin:miter;stroke-miterlimit:4;stroke-dasharray:none;stroke-dashoffset:0;stroke-opacity:1;color-rendering:auto;image-rendering:auto;shape-rendering:auto;text-rendering:auto;enable-background:accumulate"
         id="flowPara4150"><flowSpan
   style="font-weight:bold;font-size:48.13832855px"
   id="flowSpan6234">Q</flowSpan>uite simply, yes.</flowPara><flowPara
         style="color:#000000;font-style:italic;font-variant:normal;font-weight:normal;font-stretch:normal;font-size:8.02305508px;line-height:125%;font-family:'Liberation Serif';-inkscape-font-specification:'Liberation Serif Italic';text-align:start;writing-mode:lr-tb;text-anchor:start;clip-rule:nonzero;display:inline;overflow:visible;visibility:visible;isolation:auto;mix-blend-mode:normal;color-interpolation:sRGB;color-interpolation-filters:linearRGB;solid-color:#000000;solid-opacity:1;fill:#612700;fill-opacity:1;fill-rule:nonzero;stroke:none;stroke-width:1.06974065px;stroke-linecap:butt;stroke-linejoin:miter;stroke-miterlimit:4;stroke-dasharray:none;stroke-dashoffset:0;stroke-opacity:1;color-rendering:auto;image-rendering:auto;shape-rendering:auto;text-rendering:auto;enable-background:accumulate"
         id="flowPara4609"> </flowPara><flowPara
         style="color:#000000;font-style:italic;font-variant:normal;font-weight:normal;font-stretch:normal;font-size:24.06916428px;line-height:125%;font-family:'Liberation Serif';-inkscape-font-specification:'Liberation Serif Italic';text-align:start;writing-mode:lr-tb;text-anchor:start;clip-rule:nonzero;display:inline;overflow:visible;visibility:visible;isolation:auto;mix-blend-mode:normal;color-interpolation:sRGB;color-interpolation-filters:linearRGB;solid-color:#000000;solid-opacity:1;fill:#612700;fill-opacity:1;fill-rule:nonzero;stroke:none;stroke-width:1.06974065px;stroke-linecap:butt;stroke-linejoin:miter;stroke-miterlimit:4;stroke-dasharray:none;stroke-dashoffset:0;stroke-opacity:1;color-rendering:auto;image-rendering:auto;shape-rendering:auto;text-rendering:auto;enable-background:accumulate"
         id="flowPara4211">Brexit won’t be finalised until 29<flowSpan
   style="font-size:69.53313947%;baseline-shift:super"
   id="flowSpan6124">th</flowSpan> March 2019. At any point up to then, we can change our</flowPara><flowPara
         style="color:#000000;font-style:italic;font-variant:normal;font-weight:normal;font-stretch:normal;font-size:24.06916428px;line-height:125%;font-family:'Liberation Serif';-inkscape-font-specification:'Liberation Serif Italic';text-align:start;writing-mode:lr-tb;text-anchor:start;clip-rule:nonzero;display:inline;overflow:visible;visibility:visible;isolation:auto;mix-blend-mode:normal;color-interpolation:sRGB;color-interpolation-filters:linearRGB;solid-color:#000000;solid-opacity:1;fill:#612700;fill-opacity:1;fill-rule:nonzero;stroke:none;stroke-width:1.06974065px;stroke-linecap:butt;stroke-linejoin:miter;stroke-miterlimit:4;stroke-dasharray:none;stroke-dashoffset:0;stroke-opacity:1;color-rendering:auto;image-rendering:auto;shape-rendering:auto;text-rendering:auto;enable-background:accumulate"
         id="flowPara6122">minds and stay in the EU.</flowPara></flowRoot>    <g
       id="g4176"
       transform="translate(25.657692,87.01994)">
      <flowRoot
         transform="translate(0,308.26772)"
         style="font-style:normal;font-weight:normal;font-size:16.25px;line-height:125%;font-family:sans-serif;letter-spacing:0px;word-spacing:0px;fill:#000000;fill-opacity:1;stroke:none;stroke-width:1px;stroke-linecap:butt;stroke-linejoin:miter;stroke-opacity:1"
         id="flowRoot4152"
         xml:space="preserve"><flowRegion
           id="flowRegion4154"><rect
             style="font-size:16.25px"
             y="138.95303"
             x="702.01715"
             height="396.7923"
             width="273.37527"
             id="rect4156" /></flowRegion><flowPara
           style="font-style:italic;font-variant:normal;font-weight:300;font-stretch:normal;font-size:16.25px;line-height:129.99999523%;font-family:'Roboto Condensed';-inkscape-font-specification:'Roboto Condensed, Light Italic';text-align:start;writing-mode:lr-tb;text-anchor:start"
           id="flowPara4158"><flowSpan
   id="flowSpan4164"
   style="font-weight:bold">The legal process</flowSpan> to stop Brexit is simple. Theresa May started the leaving process by notifying the commission of our intention to leave, in accordance with Article 50 of the Treaty of Lisbon. To stop the process we simply have to write to the commission withdrawing that notification.</flowPara><flowPara
           style="font-style:italic;font-variant:normal;font-weight:300;font-stretch:normal;font-size:16.25px;line-height:129.99999523%;font-family:'Roboto Condensed';-inkscape-font-specification:'Roboto Condensed, Light Italic';text-align:start;writing-mode:lr-tb;text-anchor:start"
           id="flowPara4160">      You may have heard people say that the legal position on the withdrawal of notification is unclear. In strict legal terms this is true — it has never been tested. However, the issue is more political than legal: if the 27 accept us cancelling Brexit, the legal situation is not important.</flowPara><flowPara
           style="font-style:italic;font-variant:normal;font-weight:300;font-stretch:normal;font-size:16.25px;line-height:129.99999523%;font-family:'Roboto Condensed';-inkscape-font-specification:'Roboto Condensed, Light Italic';text-align:start;writing-mode:lr-tb;text-anchor:start"
           id="flowPara4162" /></flowRoot>    </g>
    <rect
       style="color:#000000;clip-rule:nonzero;display:inline;overflow:visible;visibility:visible;opacity:1;isolation:auto;mix-blend-mode:normal;color-interpolation:sRGB;color-interpolation-filters:linearRGB;solid-color:#000000;solid-opacity:1;fill:#803300;fill-opacity:1;fill-rule:nonzero;stroke:none;stroke-width:1px;stroke-linecap:butt;stroke-linejoin:miter;stroke-miterlimit:4;stroke-dasharray:none;stroke-dashoffset:0;stroke-opacity:1;color-rendering:auto;image-rendering:auto;shape-rendering:auto;text-rendering:auto;enable-background:accumulate"
       id="rect4209"
       width="299.25299"
       height="21.398874"
       x="713.07715"
       y="488.45697" />
    <flowRoot
       xml:space="preserve"
       id="flowRoot4229"
       style="fill:black;stroke:none;stroke-opacity:1;stroke-width:1px;stroke-linejoin:miter;stroke-linecap:butt;fill-opacity:1;font-family:Roboto;font-style:normal;font-weight:normal;font-size:17.5px;line-height:125%;letter-spacing:0px;word-spacing:0px;-inkscape-font-specification:Roboto;font-stretch:normal;font-variant:normal;"><flowRegion
         id="flowRegion4231"><rect
           id="rect4233"
           width="581.39355"
           height="259.43188"
           x="71.842682"
           y="448.74124"
           style="font-size:17.5px;-inkscape-font-specification:Roboto;font-family:Roboto;font-weight:normal;font-style:normal;font-stretch:normal;font-variant:normal;" /></flowRegion><flowPara
         id="flowPara4235"></flowPara></flowRoot>    <flowRoot
       xml:space="preserve"
       id="flowRoot4237"
       style="font-style:normal;font-weight:normal;font-size:45px;line-height:125%;font-family:sans-serif;letter-spacing:0px;word-spacing:0px;fill:#000000;fill-opacity:1;stroke:none;stroke-width:1px;stroke-linecap:butt;stroke-linejoin:miter;stroke-opacity:1"
       transform="translate(0,308.26772)"><flowRegion
         id="flowRegion4239"><rect
           id="rect4241"
           width="528.17676"
           height="268.74484"
           x="70.51226"
           y="455.39334" /></flowRegion><flowPara
         id="flowPara4283" /></flowRoot>    <text
       xml:space="preserve"
       style="font-style:normal;font-weight:normal;font-size:45px;line-height:125%;font-family:sans-serif;letter-spacing:0px;word-spacing:0px;fill:#000000;fill-opacity:1;stroke:none;stroke-width:1px;stroke-linecap:butt;stroke-linejoin:miter;stroke-opacity:1"
       x="65.190582"
       y="745.03516"
       id="text4515"
       sodipodi:linespacing="125%"><tspan
         sodipodi:role="line"
         id="tspan4517"
         x="65.190582"
         y="745.03516"></tspan></text>
    <flowRoot
       xml:space="preserve"
       id="flowRoot4611"
       style="fill:black;stroke:none;stroke-opacity:1;stroke-width:1px;stroke-linejoin:miter;stroke-linecap:butt;fill-opacity:1;font-family:sans-serif;font-style:normal;font-weight:normal;font-size:45px;line-height:125%;letter-spacing:0px;word-spacing:0px"><flowRegion
         id="flowRegion4613"><rect
           id="rect4615"
           width="923.31146"
           height="199.563"
           x="71.842682"
           y="774.69415" /></flowRegion><flowPara
         id="flowPara4617"></flowPara></flowRoot>    <flowRoot
       xml:space="preserve"
       id="flowRoot4619"
       style="fill:black;stroke:none;stroke-opacity:1;stroke-width:1px;stroke-linejoin:miter;stroke-linecap:butt;fill-opacity:1;font-family:sans-serif;font-style:normal;font-weight:normal;font-size:45px;line-height:125%;letter-spacing:0px;word-spacing:0px"><flowRegion
         id="flowRegion4621"><rect
           id="rect4623"
           width="856.79047"
           height="215.52803"
           x="77.16436"
           y="789.32874" /></flowRegion><flowPara
         id="flowPara4625"></flowPara></flowRoot>    <flowRoot
       xml:space="preserve"
       id="flowRoot4627"
       style="fill:black;stroke:none;stroke-opacity:1;stroke-width:1px;stroke-linejoin:miter;stroke-linecap:butt;fill-opacity:1;font-family:sans-serif;font-style:normal;font-weight:normal;font-size:45px;line-height:125%;letter-spacing:0px;word-spacing:0px"><flowRegion
         id="flowRegion4629"><rect
           id="rect4631"
           width="800.91284"
           height="227.50182"
           x="73.173096"
           y="768.04205" /></flowRegion><flowPara
         id="flowPara4633"></flowPara></flowRoot>    <g
       id="g5469"
       transform="translate(-1.6086805,0)">
      <text
         sodipodi:linespacing="125%"
         id="text4136"
         y="425.25122"
         x="86.257812"
         style="font-style:normal;font-variant:normal;font-weight:normal;font-stretch:normal;font-size:40px;line-height:125%;font-family:NanumMyeongjo;-inkscape-font-specification:'NanumMyeongjo, Normal';text-align:start;letter-spacing:0px;word-spacing:0px;writing-mode:lr-tb;text-anchor:start;fill:#e9c6af;fill-opacity:1;stroke:none;stroke-width:1px;stroke-linecap:butt;stroke-linejoin:miter;stroke-opacity:1"
         xml:space="preserve"><tspan
           style="font-style:normal;font-variant:normal;font-weight:bold;font-stretch:normal;font-size:40px;line-height:125%;font-family:'Roboto Condensed';-inkscape-font-specification:'Roboto Condensed, Bold';text-align:start;writing-mode:lr-tb;text-anchor:start;fill:#e9c6af"
           y="425.25122"
           x="86.257812"
           id="tspan4138"
           sodipodi:role="line">Can the British people stop Brexit?</tspan><tspan
           id="tspan4140"
           y="475.25122"
           x="86.257812"
           sodipodi:role="line" /></text>
      <rect
         y="393.68936"
         x="51.379292"
         height="32.933643"
         width="29.846113"
         id="rect4729"
         style="color:#000000;clip-rule:nonzero;display:inline;overflow:visible;visibility:visible;opacity:1;isolation:auto;mix-blend-mode:normal;color-interpolation:sRGB;color-interpolation-filters:linearRGB;solid-color:#000000;solid-opacity:1;fill:#f3be50;fill-opacity:1;fill-rule:nonzero;stroke:none;stroke-width:1px;stroke-linecap:butt;stroke-linejoin:miter;stroke-miterlimit:4;stroke-dasharray:none;stroke-dashoffset:0;stroke-opacity:1;color-rendering:auto;image-rendering:auto;shape-rendering:auto;text-rendering:auto;enable-background:accumulate" />
    </g>
    <flowRoot
       transform="translate(8.6977312,-565.43134)"
       id="flowRoot4995"
       style="font-style:normal;font-weight:normal;font-size:12.5px;line-height:125%;font-family:sans-serif;letter-spacing:0px;word-spacing:0px;fill:#000000;fill-opacity:1;stroke:none;stroke-width:1px;stroke-linecap:butt;stroke-linejoin:miter;stroke-opacity:1"
       xml:space="preserve"><flowRegion
         id="flowRegion4997"><use
           transform="translate(-8.6977312,565.43134)"
           height="100%"
           width="100%"
           id="use4999"
           xlink:href="#path4635"
           y="0"
           x="0" /></flowRegion><flowPara
         id="flowPara5001"
         style="font-style:normal;font-variant:normal;font-weight:normal;font-stretch:normal;font-family:'Liberation Serif';-inkscape-font-specification:'Liberation Serif';letter-spacing:0px"><flowSpan
   style="font-style:normal;font-variant:normal;font-weight:bold;font-stretch:normal;font-family:'Liberation Serif';-inkscape-font-specification:'Liberation Serif Bold';letter-spacing:0px"
   id="flowSpan6079"><flowSpan
     style="letter-spacing:0px;fill:#803300;fill-opacity:1"
     id="flowSpan6168">      e have confirmation</flowSpan></flowSpan> from many of those on the EU side of the negotiations that they would be delighted for us to remain in the EU:</flowPara><flowPara
         id="flowPara5005"
         style="font-style:normal;font-variant:normal;font-weight:normal;font-stretch:normal;font-family:'Liberation Serif';-inkscape-font-specification:'Liberation Serif';letter-spacing:0px" /><flowPara
         id="flowPara5013"
         style="font-style:normal;font-variant:normal;font-weight:normal;font-stretch:normal;font-family:'Liberation Serif';-inkscape-font-specification:'Liberation Serif';letter-spacing:0px">&quot;Some of my British friends have even asked me whether <flowSpan
   style="font-weight:bold;letter-spacing:0px;fill:#803300;fill-opacity:1"
   id="flowSpan6136">Brexit could be reversed</flowSpan>, and whether I could imagine an outcome where the UK stays part of the EU.</flowPara><flowPara
         id="flowPara5433"
         style="font-style:normal;font-variant:normal;font-weight:normal;font-stretch:normal;font-family:'Liberation Serif';-inkscape-font-specification:'Liberation Serif';letter-spacing:0px">&quot;I told them that in fact the European Union was built on dreams that seemed impossible to achieve. So, who knows?&quot;</flowPara><flowPara
         style="font-style:italic;font-variant:normal;font-weight:normal;font-stretch:normal;font-family:'Liberation Serif';-inkscape-font-specification:'Liberation Serif';letter-spacing:0px"
         id="flowPara5015">–  Donald Tusk, President of European Council</flowPara><flowPara
         style="font-style:italic;font-variant:normal;font-weight:normal;font-stretch:normal;font-family:'Liberation Serif';-inkscape-font-specification:'Liberation Serif';letter-spacing:0px"
         id="flowPara5459" /><flowPara
         style="font-style:normal;font-variant:normal;font-weight:normal;font-stretch:normal;font-family:'Liberation Serif';-inkscape-font-specification:'Liberation Serif';letter-spacing:0px"
         id="flowPara5467">“President Tusk also made some comments on Brexit, he said that our <flowSpan
   style="font-weight:bold;letter-spacing:0px;fill:#803300;fill-opacity:1"
   id="flowSpan6150">door remains open</flowSpan>. I hope that will be heard clearly in London”</flowPara><flowPara
         style="font-style:italic;font-variant:normal;font-weight:normal;font-stretch:normal;font-family:'Liberation Serif';-inkscape-font-specification:'Liberation Serif';letter-spacing:0px"
         id="flowPara5461">–  Jean-Claude Juncker, President of the</flowPara><flowPara
         style="font-style:italic;font-variant:normal;font-weight:normal;font-stretch:normal;font-family:'Liberation Serif';-inkscape-font-specification:'Liberation Serif';letter-spacing:0px"
         id="flowPara6091">European Commission</flowPara><flowPara
         style="font-style:italic;font-variant:normal;font-weight:normal;font-stretch:normal;font-family:'Liberation Serif';-inkscape-font-specification:'Liberation Serif';letter-spacing:0px"
         id="flowPara5463" /><flowPara
         style="font-style:normal;font-variant:normal;font-weight:normal;font-stretch:normal;font-family:'Liberation Serif';-inkscape-font-specification:'Liberation Serif';letter-spacing:0px"
         id="flowPara6108">“The <flowSpan
   style="letter-spacing:0px;fill:#803300;fill-opacity:1;font-weight:bold"
   id="flowSpan6154">door remains open</flowSpan> for the UK to stay in the European Union”</flowPara><flowPara
         style="font-style:italic;font-variant:normal;font-weight:normal;font-stretch:normal;font-family:'Liberation Serif';-inkscape-font-specification:'Liberation Serif';letter-spacing:0px"
         id="flowPara6110">–  Ireland’s Taoiseach, Leo Varadkar</flowPara><flowPara
         style="font-style:italic;font-variant:normal;font-weight:normal;font-stretch:normal;font-family:'Liberation Serif';-inkscape-font-specification:'Liberation Serif';letter-spacing:0px"
         id="flowPara6112" /><flowPara
         style="font-style:normal;font-variant:normal;font-weight:normal;font-stretch:normal;font-family:'Liberation Serif';-inkscape-font-specification:'Liberation Serif';letter-spacing:0px"
         id="flowPara5465" /><flowPara
         style="font-style:normal;font-variant:normal;font-weight:normal;font-stretch:normal;font-family:'Liberation Serif';-inkscape-font-specification:'Liberation Serif';letter-spacing:0px"
         id="flowPara5017" /><flowPara
         style="font-style:normal;font-variant:normal;font-weight:normal;font-stretch:normal;font-family:'Liberation Serif';-inkscape-font-specification:'Liberation Serif';letter-spacing:0px"
         id="flowPara5041" /><flowPara
         style="font-style:normal;font-variant:normal;font-weight:normal;font-stretch:normal;font-family:'Liberation Serif';-inkscape-font-specification:'Liberation Serif';letter-spacing:0px"
         id="flowPara6114" /></flowRoot>    <flowRoot
       xml:space="preserve"
       style="font-style:normal;font-weight:normal;font-size:12.5px;line-height:125%;font-family:sans-serif;letter-spacing:0px;word-spacing:0px;fill:#000000;fill-opacity:1;stroke:none;stroke-width:1px;stroke-linecap:butt;stroke-linejoin:miter;stroke-opacity:1"
       id="flowRoot5207"
       transform="translate(279.41389,-513.5815)"
       inkscape:export-xdpi="300.00443"
       inkscape:export-ydpi="300.00443"><flowRegion
         id="flowRegion5209"><use
           x="0"
           y="0"
           xlink:href="#path4635"
           id="use5211"
           width="100%"
           height="100%"
           transform="translate(-8.6977312,575.43134)" /></flowRegion><flowPara
         id="flowPara5237"
         style="font-style:normal;font-variant:normal;font-weight:normal;font-stretch:normal;font-family:'Liberation Serif';-inkscape-font-specification:'Liberation Serif'">&quot;Britain could still <flowSpan
   style="font-weight:bold;fill:#803300;fill-opacity:1"
   id="flowSpan6156">cancel Brexit and stay</flowSpan> in the European Union on the same terms it currently enjoys&quot;</flowPara><flowPara
         id="flowPara5239"
         style="font-style:italic;font-variant:normal;font-weight:normal;font-stretch:normal;font-family:'Liberation Serif';-inkscape-font-specification:'Liberation Serif'">–  Nathalie Loiseau, French government’s</flowPara><flowPara
         style="font-style:italic;font-variant:normal;font-weight:normal;font-stretch:normal;font-family:'Liberation Serif';-inkscape-font-specification:'Liberation Serif'"
         id="flowPara6093">    European affairs minister</flowPara><flowPara
         id="flowPara5241"
         style="font-style:italic;font-variant:normal;font-weight:normal;font-stretch:normal;font-family:'Liberation Serif';-inkscape-font-specification:'Liberation Serif'" /><flowPara
         id="flowPara5243"
         style="font-style:normal;font-variant:normal;font-weight:normal;font-stretch:normal;font-family:'Liberation Serif';-inkscape-font-specification:'Liberation Serif'">&quot;It is purely a <flowSpan
   style="font-weight:bold;fill:#803300;fill-opacity:1"
   id="flowSpan6160">responsibility of the UK </flowSpan>that they have to make up their mind if they want to change their decision&quot;</flowPara><flowPara
         id="flowPara5444"
         style="font-style:italic;font-variant:normal;font-weight:normal;font-stretch:normal;font-family:'Liberation Serif';-inkscape-font-specification:'Liberation Serif'">–  Guy Verhofstadt, EU Parliament's lead</flowPara><flowPara
         style="font-style:italic;font-variant:normal;font-weight:normal;font-stretch:normal;font-family:'Liberation Serif';-inkscape-font-specification:'Liberation Serif'"
         id="flowPara6095">    negotiator for Brexit</flowPara><flowPara
         id="flowPara5446"
         style="font-style:italic;font-variant:normal;font-weight:normal;font-stretch:normal;font-family:'Liberation Serif';-inkscape-font-specification:'Liberation Serif'" /><flowPara
         id="flowPara5249"
         style="font-style:normal;font-variant:normal;font-weight:normal;font-stretch:normal;font-family:'Liberation Serif';-inkscape-font-specification:'Liberation Serif'">&quot;Germany would not stand in the way of the UK returning to the Union. If they wanted to change their decision, of course, they would find <flowSpan
   style="font-weight:bold;fill:#803300;fill-opacity:1"
   id="flowSpan6164">open doors</flowSpan>&quot;</flowPara><flowPara
         id="flowPara5251"
         style="font-style:italic;font-variant:normal;font-weight:normal;font-stretch:normal;font-family:'Liberation Serif';-inkscape-font-specification:'Liberation Serif'">–  Wolfgang Schaeuble, German Finance Minister</flowPara><flowPara
         id="flowPara5253"
         style="font-style:normal;font-variant:normal;font-weight:normal;font-stretch:normal;font-family:'Liberation Serif';-inkscape-font-specification:'Liberation Serif'" /></flowRoot>    <flowRoot
       xml:space="preserve"
       id="flowRoot5318"
       style="fill:black;stroke:none;stroke-opacity:1;stroke-width:1px;stroke-linejoin:miter;stroke-linecap:butt;fill-opacity:1;font-family:sans-serif;font-style:normal;font-weight:normal;font-size:45px;line-height:125%;letter-spacing:0px;word-spacing:0px"><flowRegion
         id="flowRegion5320"><rect
           id="rect5322"
           width="5.8885174"
           height="78.233162"
           x="356.67593"
           y="575.85114" /></flowRegion><flowPara
         id="flowPara5324"></flowPara></flowRoot>    <g
       id="g6116"
       transform="matrix(1.1029326,0,0,1.1029326,-53.963963,-79.571283)">
      <text
         transform="scale(1.0967045,0.91182265)"
         sodipodi:linespacing="125%"
         id="text4725"
         y="779.8111"
         x="406.59161"
         style="color:#000000;font-style:normal;font-weight:normal;font-size:244.10038757px;line-height:125%;font-family:sans-serif;letter-spacing:0px;word-spacing:0px;clip-rule:nonzero;display:inline;overflow:visible;visibility:visible;opacity:1;isolation:auto;mix-blend-mode:normal;color-interpolation:sRGB;color-interpolation-filters:linearRGB;solid-color:#000000;solid-opacity:1;fill:#803300;fill-opacity:1;fill-rule:nonzero;stroke:none;stroke-width:1px;stroke-linecap:butt;stroke-linejoin:miter;stroke-miterlimit:4;stroke-dasharray:none;stroke-dashoffset:0;stroke-opacity:1;color-rendering:auto;image-rendering:auto;shape-rendering:auto;text-rendering:auto;enable-background:accumulate"
         xml:space="preserve"><tspan
           y="779.8111"
           x="406.59161"
           id="tspan4727"
           sodipodi:role="line">✓</tspan></text>
      <text
         xml:space="preserve"
         style="color:#000000;font-style:normal;font-weight:normal;font-size:244.10038757px;line-height:125%;font-family:sans-serif;letter-spacing:0px;word-spacing:0px;clip-rule:nonzero;display:inline;overflow:visible;visibility:visible;opacity:0.70899999;isolation:auto;mix-blend-mode:normal;color-interpolation:sRGB;color-interpolation-filters:linearRGB;solid-color:#000000;solid-opacity:1;fill:#803300;fill-opacity:1;fill-rule:nonzero;stroke:none;stroke-width:1px;stroke-linecap:butt;stroke-linejoin:miter;stroke-miterlimit:4;stroke-dasharray:none;stroke-dashoffset:0;stroke-opacity:1;filter:url(#filter5575);color-rendering:auto;image-rendering:auto;shape-rendering:auto;text-rendering:auto;enable-background:accumulate"
         x="703.72748"
         y="1110.8126"
         id="text5507"
         sodipodi:linespacing="125%"
         transform="matrix(1.0967045,0,0,0.91182265,-319.87021,-293.8147)"><tspan
           sodipodi:role="line"
           id="tspan5509"
           x="703.72748"
           y="1110.8126">✓</tspan></text>
    </g>
    <g
       id="g5902"
       transform="matrix(0.60226494,0,0,0.63871859,712.21295,856.18971)"
       style="opacity:0.44599998;fill-rule:evenodd">
      <path
         id="path5904"
         d="m 116.98,43.362 c -1.077,2.589 0.527,9.768 3,11.999 -5.375,2.422 -9.87,-3.264 -15.998,-4 -9.708,-1.166 -16.761,4.426 -23.997,4 -3.863,3.803 -6.509,8.823 -11.999,10.999 3.573,-8.428 -3.31,-11.854 -3,-19.998 3.515,-2.329 4.829,-6.067 7.999,-7.999 0.685,-0.417 2.375,0.49 3,0 4.123,-3.233 10.485,-9.428 11.998,-13.999 1.913,-5.779 -2.932,-16.383 7,-18.998 2.124,4.208 0.485,12.18 1,17.998 0.745,2.255 5.608,0.391 7.999,1 2.144,-4.522 0.472,-12.86 1,-18.998 3.775,-0.442 4.694,1.972 6.999,3 -5.688,15.805 8.817,18.853 8.999,31.996 4.075,-1.922 12.138,-0.585 11.999,6.999 0.241,2.578 1.72,-1.373 4,0 0.234,4.376 3.935,16.909 -2,17.998 l 0,-5 c -7.77,-3.893 -6.86,-16.462 -18,-16.997 z M 84.989,31.364 c 1.548,7.451 0.01,17.988 8.999,17.998 4.509,-3.49 2.582,-13.417 3,-20.998 -5.669,-0.669 -7.752,2.247 -11.999,3 z m 16.001,-2 c -1.363,5.302 -1.879,11.453 -2,17.998 5.582,0.417 9.355,2.643 13.998,4 0.563,-5.437 1.568,-10.431 3,-14.998 -3.23,-4.108 -7.07,-7.596 -15,-7 z M 68.991,54.361 c 4.211,-2.966 4.58,-10.54 6,-13.998 -2.303,3.717 -7.429,9.875 -6,13.998 z m 11.999,0 c 1.06,-3.644 4.504,-8.981 3,-11.999 -3.737,0.959 -10.461,4.163 -8.999,7 1.726,-2.607 3.597,-5.068 7.999,-5 0.69,4.073 -4.527,7.406 -2,9.999 z"
         inkscape:connector-curvature="0"
         style="fill:#ffffff" />
      <path
         id="path5906"
         d="m 96.988,28.364 c -0.418,7.581 1.509,17.507 -3,20.998 -8.989,-0.01 -7.451,-10.547 -8.999,-17.998 4.247,-0.753 6.33,-3.669 11.999,-3 z"
         inkscape:connector-curvature="0" />
      <path
         id="path5908"
         d="m 115.98,36.363 c -1.432,4.567 -2.437,9.562 -3,14.998 -4.643,-1.356 -8.416,-3.583 -13.998,-4 0.121,-6.545 0.636,-12.695 2,-17.998 7.94,-0.595 11.78,2.893 15,7 z"
         inkscape:connector-curvature="0" />
      <path
         id="path5910"
         d="m 55.993,42.362 c 6.067,0.796 5.911,12.484 4,17.998 -2.186,-0.147 -2.147,-2.52 -2,-5 -2.474,0.859 0.294,6.959 -2,7.999 -6.568,-4.355 -0.389,-14.479 0,-20.997 z"
         inkscape:connector-curvature="0"
         style="fill:#ffffff" />
      <path
         id="path5912"
         d="m 121.98,52.361 c 1.117,-2.922 3.25,1.272 3,3 -2.3,0.306 -1.11,-2.889 -3,-3 z"
         inkscape:connector-curvature="0" />
      <path
         id="path5914"
         d="m 63.992,58.36 c 3.673,-0.609 2.675,8.592 -1,7 -2.518,-2.503 1.148,-3.927 1,-7 z"
         inkscape:connector-curvature="0"
         style="fill:#ffffff" />
      <path
         id="path5916"
         d="m 132.98,60.36 c 0.271,3.603 0.25,6.916 -4,5.999 -1.85,-2.151 -0.15,-6.799 4,-5.999 z"
         inkscape:connector-curvature="0"
         style="fill:#ffffff" />
      <path
         id="path5918"
         d="m 59.993,68.359 c 3.209,-0.877 2.073,2.593 4,3 -0.658,1.342 -2.137,1.862 -4,2 -1.284,-1.314 -1.284,-3.686 0,-5 z"
         inkscape:connector-curvature="0"
         style="fill:#ffffff" />
      <path
         id="path5920"
         d="m 93.988,74.358 c 4.475,-0.475 5.003,2.996 5,6.999 6.421,-5.855 20.127,-4.406 23.997,3 0.959,15.624 -7.794,21.535 -11.998,31.996 -5.381,2.952 -13.2,3.465 -21.998,3 -9.86,-7.069 -24.425,-30.313 -7.999,-39.995 5.893,-0.11 13.546,1.544 13.005,-4.997 z m -3.999,15.998 c 2.549,7.444 8.248,3.42 13.998,2 -1.31,-6.335 -10.198,-3.796 -14.001,-2 z m -2,14.004 c 6.265,-0.933 5.002,5.663 10.999,4.999 2.445,-2.887 5.573,-5.092 7.999,-7.999 -6.91,-2.269 -15.551,-3.059 -19.001,3 z"
         inkscape:connector-curvature="0"
         style="fill:#ffffff" />
      <path
         id="path5922"
         d="m 65.992,75.358 c 0.478,3.582 1.626,5.777 0,8.999 -2.991,-1.675 -4.755,-4.577 -6.999,-6.999 1.513,-1.486 4.388,-1.61 6.999,-2 z"
         inkscape:connector-curvature="0"
         style="fill:#ffffff" />
      <path
         id="path5924"
         d="m 103.99,92.356 c -5.75,1.42 -11.449,5.444 -13.998,-2 3.8,-1.796 12.688,-4.335 13.998,2 z"
         inkscape:connector-curvature="0" />
      <path
         id="path5926"
         d="m 106.99,101.36 c -2.426,2.907 -5.554,5.112 -7.999,7.999 -5.997,0.664 -4.734,-5.932 -10.999,-4.999 3.447,-6.059 12.088,-5.269 18.998,-3 z m -12.002,4.99 c 2.48,0.147 4.852,0.186 4.999,-2 -1.493,-1.58 -5.7,-1.46 -4.999,2 z"
         inkscape:connector-curvature="0" />
      <path
         id="path5928"
         d="m 99.987,104.36 c -0.147,2.186 -2.519,2.146 -4.999,2 -0.701,-3.47 3.506,-3.59 4.999,-2 z"
         inkscape:connector-curvature="0"
         style="fill:#ffffff" />
      <path
         id="path5930"
         d="m 0,220.34 0,-38.995 c 7.301,-4.363 10.065,-13.265 13.998,-20.997 6.848,-2.484 13.482,-5.182 19.998,-7.999 2.728,2.438 -2.525,6.948 -4.999,9.999 -3.11,3.834 -7.004,7.585 -8.999,10.998 0.903,1.764 2.236,3.097 4,4 11.682,-14.981 21.66,-31.666 33.996,-45.994 8.3,-0.366 11.156,-6.176 17.998,-7.999 2.031,13.362 -6.225,16.439 -10.999,22.997 2.919,1.081 5.761,2.238 9.999,2 6.164,-8.905 2.275,-22.316 4,-31.996 10.699,5.299 16.06,15.936 22.997,24.997 -2.657,4.111 -5.59,9.48 -3,15.998 -1.455,1.47 -6.545,1.47 -7.999,0 -0.468,3.134 2.514,2.818 4,3.999 10.638,0.755 9.559,-13.666 19.998,-9.999 -6.828,-11.684 -4.253,-30.377 1,-40.995 3.776,13.894 -6.3,29.295 4,38.996 -1.624,-4.376 -2.746,-9.253 -4,-13.999 2.581,-4.703 5.58,4.232 8.999,5 -0.431,7.066 5.338,11.65 4,19.997 -0.741,4.617 -8.93,12.316 -11.999,15.998 -4.415,5.298 -9.902,13.633 -14.998,13.998 -6.616,0.476 -11.853,-6.74 -15.998,-10.998 -5.188,-5.329 -8.976,-10.171 -13.998,-13.999 1.307,13.695 14.338,24.321 21.997,34.996 1.751,3.541 -0.666,2.459 -1,5.999 4.379,1.611 5.427,-4.231 7.999,-6.999 7.864,-8.46 18.571,-18.387 24.997,-23.997 0.771,10.196 -4.919,22.343 -7.999,31.996 -15.106,-3.405 -28.348,2.714 -37.995,7.999 -6.975,-3.023 -9.667,-10.331 -14.999,-14.998 -1.539,3.572 2.282,10.359 3,14.998 -12.509,-9.488 -16.012,-27.983 -20.998,-44.994 -3.79,17.459 3.055,32.938 5.999,46.994 -6.415,2.59 -19.394,2.8 -26.997,1 -2.313,-3.021 -2.248,-8.417 -4,-11.999 -4.38,2.032 -0.078,10.69 -2,12.999 C 9.637,213.37 7.265,199.411 5.999,184.345 c -5.151,3.813 -3.852,16.017 -4,23.997 -0.08,4.2 1.71,10.45 -2.001,11.98 z m 60.992,-56.99 c 3.551,11.617 12.729,26.939 17.998,34.995 2.242,3.429 4.734,7.932 7.999,8.999 -8.42,-21.614 -28.547,-40.936 -23.997,-68.991 -3.83,4.64 -3.828,19.02 -2,25 z"
         inkscape:connector-curvature="0"
         style="fill:#ffffff" />
      <path
         id="path5932"
         d="m 116.98,126.35 c 8.447,0.685 16.137,6.237 24.997,10.999 16.962,9.118 20.877,14.364 26.997,33.996 4.311,13.828 9.703,31.041 10.999,48.993 -4.522,2.144 -12.86,0.472 -18.998,1 -5.198,-20.466 -10.25,-41.077 -20.998,-55.993 -3.92,-16.74 -15.08,-26.25 -23,-39 z"
         inkscape:connector-curvature="0"
         style="fill:#ffffff" />
      <path
         id="path5934"
         d="m 444.94,135.35 c 4.177,0.669 0.465,6.208 -2,3 0.36,-1.31 1.76,-1.57 2,-3 z"
         inkscape:connector-curvature="0" />
      <path
         id="path5936"
         d="m 336.96,136.35 c -0.69,3.723 -4.94,7.819 -8.999,5 2.05,-2.62 5.97,-3.36 9,-5 z"
         inkscape:connector-curvature="0"
         style="fill:#ffffff" />
      <path
         id="path5938"
         d="m 62.992,138.35 c -4.55,28.056 15.577,47.377 23.997,68.991 -3.265,-1.067 -5.757,-5.57 -7.999,-8.999 -5.269,-8.056 -14.447,-23.378 -17.998,-34.995 -1.828,-5.97 -1.83,-20.35 2,-24.99 z"
         inkscape:connector-curvature="0" />
      <path
         id="path5940"
         d="m 161.98,147.35 c 27.991,4.671 35.732,29.593 33.996,63.992 -5.15,-2.948 -6.771,-9.907 -8.999,-14.998 -6.889,-15.736 -13.536,-32.651 -23.997,-45.995 -1.17,-0.15 -0.84,-1.81 -1,-2.99 z"
         inkscape:connector-curvature="0"
         style="fill:#ffffff" />
      <path
         id="path5942"
         d="m 346.96,147.35 c 2.614,-0.282 4.301,0.365 3.999,2.999 -1.39,1.47 -4.76,0.52 -4,-3 z"
         inkscape:connector-curvature="0" />
      <path
         id="path5944"
         d="m 291.96,150.35 c 1.386,-2.279 6.959,-0.372 9.998,-0.999 -1.38,2.28 -6.96,0.37 -10,1 z"
         inkscape:connector-curvature="0" />
      <path
         id="path5946"
         d="m 296.96,158.35 c 1.387,-2.279 6.96,-0.372 9.999,-0.999 -1.38,2.28 -6.96,0.37 -10,1 z"
         inkscape:connector-curvature="0" />
      <path
         id="path5948"
         d="m 280.96,159.35 c -1.678,5.321 -7.516,6.483 -8.999,11.999 -4.688,-1.978 -7.098,-6.234 -9.999,-9.999 5.75,-1.26 13.41,-0.59 19,-2 z"
         inkscape:connector-curvature="0" />
      <path
         id="path5950"
         d="m 133.98,164.35 c 4.93,4.734 6.418,12.912 8.999,19.997 0.467,2.134 -1.428,1.904 -3,2 -1.416,8.358 0.027,24.544 -7.999,22.997 2.6,-13.08 1.96,-29.38 2,-45 z"
         inkscape:connector-curvature="0"
         style="fill:#ffffff" />
      <path
         id="path5952"
         d="m 0,168.35 3,0 c 0.689,2.688 -2.067,1.933 -3,3 l 0,-3 z"
         inkscape:connector-curvature="0"
         style="fill:#ffffff" />
      <path
         id="path5954"
         d="m 0,173.35 c 2.333,0.295 2.333,2.706 0,3 l 0,-3 z"
         inkscape:connector-curvature="0"
         style="fill:#ffffff" />
      <path
         id="path5956"
         d="m 479.94,181.34 c -1.163,-0.162 -1.779,0.222 -2,1 -6.6,-6.42 -22.503,-1.16 -30.996,0 -0.022,-2.355 1.722,-2.943 1,-5.999 10.29,1.07 32.77,-5.91 32,5 z"
         inkscape:connector-curvature="0" />
      <path
         id="path5958"
         d="m 442.94,179.35 0,4.999 c -11.56,-0.895 -19.261,2.069 -26.996,4.999 0.442,0.891 0.878,1.789 1.999,2 -3.01,2.619 -9.093,-0.195 -8.998,-3.999 9.58,-4.43 21.87,-6.14 34,-8 z"
         inkscape:connector-curvature="0" />
      <path
         id="path5960"
         d="m 490.94,186.34 c 2.078,0.56 2.118,1.56 1,2.999 -5.092,4.97 -11.659,5.438 -17.998,7.999 -7.579,3.063 -13.055,8.001 -19.997,8.999 -7.648,1.1 -14.531,-1.405 -24.997,-1.999 -10.318,-0.586 -21.605,2.569 -29.996,-4 30.24,2 71.57,0.21 92,-14 z"
         inkscape:connector-curvature="0"
         style="fill:#ffffff" />
      <path
         id="path5962"
         d="m 148.98,253.34 -4,0 c -0.246,-10.316 4.778,-24.193 4,-37.995 -0.303,-5.372 -2.931,-10.035 -1,-14.998 5.615,2.378 6.641,12.669 6.999,19.997 0.64,12.98 -2.84,25.86 -6,33 z"
         inkscape:connector-curvature="0"
         style="fill:#ffffff" />
      <path
         id="path5964"
         d="m 197.98,219.34 c -5.778,-0.445 -10.245,0.42 -14.998,0.999 -1.233,-3.986 -5.034,-15.493 2,-15.997 5.025,1.64 6.48,6.851 8.999,10.998 -0.5,3.16 4.96,0.37 4,4 z"
         inkscape:connector-curvature="0"
         style="fill:#ffffff" />
      <path
         id="path5966"
         d="m 290.96,210.34 c -8.861,0.397 -24.246,-0.465 -34.996,1 -0.21,-1.711 1.705,-2.59 0,-3 0.354,-1.146 1.761,-2.534 2,-1 11.05,0.81 26.93,-4.64 33,3 z"
         inkscape:connector-curvature="0" />
      <path
         id="path5968"
         d="m 251.97,209.34 c -2.506,3.712 -11.975,2.314 -18.998,2.999 -3.601,-0.601 -2.947,3.053 -5.999,3 -2.337,-0.329 -4.131,-1.202 -6,-2 2.856,-5.001 12.639,-6.404 22.998,-5.999 2.33,0.09 7.87,-1.62 8,2 z"
         inkscape:connector-curvature="0" />
      <path
         id="path5970"
         d="m 302.96,215.34 c -2.165,5.454 -9.22,5.211 -14.998,6.999 -7.878,2.438 -13.59,7.622 -22.997,8.999 -8.545,1.251 -15.599,-1.934 -23.997,-3 -10.504,-1.333 -24.706,2.502 -29.996,-7.999 27.77,8.26 67.67,4.34 92,-5 z"
         inkscape:connector-curvature="0"
         style="fill:#ffffff" />
      <path
         id="path5972"
         d="m 202.98,218.34 c 5.193,3.342 1.391,17.009 1,23.997 -5.16,-5.41 0.53,-15.71 -1,-24 z"
         inkscape:connector-curvature="0"
         style="fill:#ffffff" />
      <path
         id="path5974"
         d="m 110.99,219.34 25.997,0 c 1.833,3.918 1.286,12.98 0,16.997 -7.646,2.188 -10.549,-5.183 -13.999,-7.999 -4,-3.26 -9.63,-3.9 -12,-9 z"
         inkscape:connector-curvature="0"
         style="fill:#ffffff" />
      <path
         id="path5976"
         d="m 140.98,219.34 4,0 c 0.086,3.313 0.84,13.536 -1,17.997 l -2,0 c -5.03,-3.08 -0.16,-12.55 -1,-18 z"
         inkscape:connector-curvature="0"
         style="fill:#ffffff" />
      <path
         id="path5978"
         d="m 199.98,220.34 c 2.347,4.727 0.496,12.885 -1,16.998 -13.044,-2.36 -27.925,-6.839 -41.995,-4.999 -1.376,-3.027 0.476,-3.572 0,-7.999 13.81,-1.85 30.5,-0.82 43,-4 z"
         inkscape:connector-curvature="0"
         style="fill:#ffffff" />
      <path
         id="path5980"
         d="m 208.97,225.34 c 3.52,1.48 6.895,3.104 9.999,4.999 -2.147,3.186 -3.82,6.846 -8.999,6.999 -1.91,-2.42 -0.63,-8.04 -1,-12 z"
         inkscape:connector-curvature="0"
         style="fill:#ffffff" />
      <path
         id="path5982"
         d="m 183.98,253.34 -18.998,0 c 0.541,-6.539 -0.616,-11.382 -1,-16.998 3.897,-2.102 11.498,-0.5 16.998,-0.999 2.86,4.14 1.12,12.87 3,18 z"
         inkscape:connector-curvature="0"
         style="fill:#ffffff" />
      <path
         id="path5984"
         d="m 201.98,253.34 -15.998,0 c 0.167,-5.833 -1.745,-9.587 -1,-15.998 3.468,-1.384 9.662,2.033 13.998,3 1.61,3.71 1.67,8.99 3,13 z"
         inkscape:connector-curvature="0"
         style="fill:#ffffff" />
      <path
         id="path5986"
         d="m 0,239.34 c 7.858,0.808 14.87,2.462 19.998,5.999 C 13.047,251.011 5.838,243.951 0,242.34 l 0,-3 z"
         inkscape:connector-curvature="0"
         style="fill:#ffffff" />
      <path
         id="path5988"
         d="m 216.97,253.34 -5.999,0 c -0.923,-3.49 -2.494,-10.265 -1,-12.998 7.38,-0.71 5.95,7.38 7,13 z"
         inkscape:connector-curvature="0"
         style="fill:#ffffff" />
      <path
         id="path5990"
         d="m 159.98,253.34 -5,0 c 0.805,-4.194 3.515,-6.483 4,-10.998 4.34,1.52 0.56,7.28 1,11 z"
         inkscape:connector-curvature="0"
         style="fill:#ffffff" />
      <path
         id="path5992"
         d="m 136.98,253.34 -14.998,0 c 1.13,-4.964 12.899,-5.642 14.998,-1 l 0,1 z"
         inkscape:connector-curvature="0"
         style="fill:#ffffff" />
      <path
         id="path5994"
         d="m 88.989,253.34 -8.999,0 c -0.542,-5.011 7.882,-3.069 8.999,-1 l 0,1 z"
         inkscape:connector-curvature="0"
         style="fill:#ffffff" />
      <path
         id="path5996"
         d="m 61.992,253.34 c 5.378,-4.62 13.948,-6.05 18.998,-10.998 4.943,3.056 13.537,2.461 16.998,6.999 6.721,-4.369 11.441,3.564 16.998,-1 -0.228,-4.773 -9.551,-4.652 -7,-8.999 5.987,1.037 6.372,9.484 13.999,5.999 0.456,-6.455 -6.83,-5.169 -6.999,-10.998 1.453,-0.547 5.167,1.168 4.999,-1 -0.824,5.282 6.186,13.584 12.999,10.998 1.274,-4.94 -2.518,-4.814 -5,-5.999 -3.575,-9.09 -11.776,-13.554 -20.997,-16.998 3.069,-10.506 12.253,-0.845 18.998,-7.999 -2.828,-2.883 -8.121,-4.509 -11.999,-4.999 -17.573,-2.224 -32.836,7.768 -41.995,13.998 -6.187,-1.872 -18.636,-1.606 -31.996,-1 -14.077,0.64 -28.216,0.82 -39.995,2 l 0,-3 c 3.711,-1.532 1.921,-7.774 2,-11.998 0.148,-7.98 -1.152,-20.184 4,-23.997 1.265,15.066 3.637,29.025 13.999,34.996 1.922,-2.309 -2.381,-10.967 2,-12.999 1.751,3.582 1.687,8.979 4,11.999 7.603,1.8 20.582,1.59 26.997,-1 -2.944,-14.057 -9.789,-29.535 -5.999,-46.994 4.986,17.011 8.488,35.506 20.998,44.994 -0.718,-4.639 -4.539,-11.426 -3,-14.998 5.332,4.667 8.023,11.975 14.999,14.998 9.647,-5.285 22.889,-11.404 37.995,-7.999 3.08,-9.653 8.771,-21.8 7.999,-31.996 -6.426,5.61 -17.133,15.537 -24.997,23.997 -2.572,2.768 -3.62,8.61 -7.999,6.999 0.334,-3.54 2.751,-2.458 1,-5.999 -7.659,-10.675 -20.69,-21.301 -21.997,-34.996 5.022,3.828 8.81,8.67 13.998,13.999 4.146,4.258 9.382,11.474 15.998,10.998 5.096,-0.365 10.583,-8.7 14.998,-13.998 3.068,-3.682 11.258,-11.381 11.999,-15.998 1.339,-8.347 -4.43,-12.931 -4,-19.997 -3.419,-0.768 -6.418,-9.703 -8.999,-5 1.254,4.746 2.375,9.623 4,13.999 -10.299,-9.7 -0.224,-25.102 -4,-38.996 -5.252,10.617 -7.828,29.311 -1,40.995 -10.438,-3.667 -9.36,10.754 -19.998,9.999 -1.486,-1.181 -4.468,-0.865 -4,-3.999 1.454,1.47 6.544,1.47 7.999,0 -2.591,-6.518 0.343,-11.887 3,-15.998 -6.937,-9.062 -12.298,-19.698 -22.997,-24.997 -1.725,9.68 2.164,23.091 -4,31.996 -4.238,0.238 -7.08,-0.919 -9.999,-2 4.774,-6.558 13.03,-9.635 10.999,-22.997 -6.842,1.823 -9.698,7.633 -17.998,7.999 -12.335,14.328 -22.314,31.013 -33.996,45.994 -1.763,-0.903 -3.096,-2.236 -4,-4 1.995,-3.413 5.889,-7.164 8.999,-10.998 2.474,-3.051 7.727,-7.561 4.999,-9.999 -6.515,2.817 -13.149,5.515 -19.998,7.999 -3.934,7.75 -6.698,16.65 -13.999,21.01 l 0,-4.999 c 2.333,-0.294 2.333,-2.705 0,-3 l 0,-1.999 c 0.933,-1.067 3.688,-0.312 3,-3 l -3,0 0,-4.999 c 9.185,-2.31 13.165,-7.941 19.998,-10.999 4.806,-2.15 11.198,-2.017 16.998,-4.999 8.438,-4.339 11.325,-13.408 18.998,-18.998 9.583,-6.981 15.37,-6.834 16.998,-14.998 1.004,-5.036 -1.479,-12.946 -4,-17.998 -3.146,-6.304 -10.204,-10.128 -12.998,-15.998 -0.806,-1.693 -1.806,-5.765 -3,-8.999 -2.229,-6.039 -6.989,-19.26 -2,-26.997 3.342,-5.183 11.82,-5.233 15.998,-6.999 4.141,-1.75 10.017,-4.59 12.999,-8.999 4.006,-5.925 2.615,-20.573 9.999,-24.997 8.381,-5.022 21.544,-0.94 23.997,2 2.766,3.315 1.938,13.19 4,17.998 4.724,11.016 20.288,14.958 23.997,26.997 2.69,8.732 0.19,21.546 -3,28.996 -2.922,6.826 -9.959,11.416 -12.998,17.998 -7.735,16.755 -3.821,25.188 11.999,33.996 7.229,4.024 14.576,8.96 18.998,10.999 5.976,2.754 14.448,3.259 19.998,5.999 4.166,2.057 7.76,6.093 11.999,8.999 4.092,2.806 8.802,4.874 12.998,7.999 7.378,5.493 16.418,16.813 25.997,15.998 5.823,-0.496 11.383,-6.586 14.998,-11.999 3.977,-5.955 4.446,-13.861 9.999,-16.998 5.611,-3.17 17.625,-1.254 25.996,-3.999 14.071,-4.615 24.773,-23.584 39.995,-31.996 8.944,-4.943 43.285,-14.35 51.993,0 3.063,5.047 0.779,14.973 5,18.997 4.164,3.971 15.248,1.457 25.997,0 9.597,-1.3 20.153,-1.574 27.996,-2.999 6.517,-1.185 14.138,-5.891 19.997,-4 6.062,1.957 6.995,9.953 11.999,15.998 3.185,3.848 9.839,8.817 15.998,13.999 6.58,5.535 12.758,9.971 19.997,11.998 l 0,22.997 c -11.298,3.976 -30.068,18.281 -50.993,18.998 -5.82,0.199 -12.946,-1.538 -19.998,-2 -10.182,-0.667 -20.875,1.077 -26.996,-3 -14.419,-9.602 -2.425,-26.276 4.999,-34.995 4.529,-5.319 11.13,-9.136 11.999,-17.998 -5.448,-6.442 -16.063,-2.686 -24.997,-1 -8.165,1.541 -19.205,2.206 -25.997,5 -7.112,2.925 -10.002,11.339 -16.998,10.998 -9.438,-4.786 -13.879,-12.874 -28.996,-7.999 -9.317,3.005 -22.168,21.191 -21.997,27.997 0.193,7.707 10.248,10.603 10.998,18.997 0.521,5.812 -3.126,8.359 -5.999,14.998 -4.375,-0.043 -9.592,-0.926 -9.999,3 -8.44,1.915 -15.676,8.578 -25.996,9.999 -15.475,2.13 -31.614,-6.701 -43.995,0 -3.525,5.305 -2.077,10.207 -2,17.997 l -4,0 c -1.048,-5.617 0.374,-13.705 -6.999,-12.998 -1.494,2.733 0.077,9.508 1,12.998 l -8.999,0 c -1.324,-4.008 -1.382,-9.283 -3,-12.998 -4.336,-0.967 -10.53,-4.384 -13.998,-3 -0.746,6.411 1.167,10.165 1,15.998 l -2,0 c -1.873,-5.127 -0.138,-13.859 -3,-17.997 -5.5,0.499 -13.101,-1.103 -16.998,0.999 0.384,5.616 1.541,10.459 1,16.998 l -5,0 c -0.438,-3.711 3.341,-9.478 -1,-10.998 -0.484,4.515 -3.195,6.804 -4,10.998 l -5.999,0 c 3.161,-7.139 6.634,-20.013 5.999,-32.996 -0.358,-7.328 -1.384,-17.619 -6.999,-19.997 -1.931,4.963 0.697,9.626 1,14.998 0.779,13.802 -4.245,27.679 -4,37.995 l -7.999,0 0,-1 c -2.099,-4.642 -13.868,-3.964 -14.998,1 l -32.996,0 0,-1 c -1.116,-2.069 -9.541,-4.011 -8.999,1 l -17.993,0 z m 60.988,-25 c 3.449,2.816 6.352,10.188 13.999,7.999 1.286,-4.017 1.833,-13.079 0,-16.997 l -25.997,0 c 2.38,5.1 8.01,5.74 12,9 z m 6,-171.98 c -0.598,-5.543 -5.078,-9.794 -10.999,-10.999 1.351,6.328 5.55,15.095 5.999,18.998 -8.692,-14.564 -36.747,-10.819 -47.994,-2 -3.744,2.936 -9.637,9.662 -6,12.999 C 76.391,67.093 85.465,56.18 98.983,58.36 83.822,61.197 75.242,70.614 69.986,83.357 c 5.411,-6.254 17.238,-6.093 22.997,-11.999 6.057,-0.724 10.351,0.314 11.999,4 l 11.999,0 c -0.919,-5.08 -6.202,-5.796 -8.999,-8.999 10.288,2.377 13.987,11.343 20.998,16.998 5.054,-1.945 5.683,-8.315 7.999,-12.999 -2.932,-1.15 -3.714,4.796 -5,2 1.257,-0.41 2.043,-1.29 2,-3 -3.023,-0.929 -7.776,1.428 -7.999,0 -1.66,-4.311 3.53,-8.083 3,-12.998 z m 6,3.999 0,5 c 5.935,-1.089 2.234,-13.622 2,-17.998 -2.279,-1.373 -3.759,2.578 -4,0 0.14,-7.584 -7.924,-8.921 -11.999,-6.999 -0.182,-13.144 -14.687,-16.191 -8.999,-31.996 -2.305,-1.028 -3.224,-3.442 -6.999,-3 -0.528,6.137 1.144,14.475 -1,18.998 -2.391,-0.609 -7.254,1.255 -7.999,-1 -0.515,-5.817 1.125,-13.789 -1,-17.998 -9.932,2.614 -5.086,13.218 -7,18.998 -1.513,4.571 -7.875,10.765 -11.998,13.999 -0.625,0.49 -2.315,-0.417 -3,0 -3.17,1.931 -4.484,5.669 -7.999,7.999 -0.31,8.144 6.573,11.57 3,19.998 5.49,-2.176 8.136,-7.195 11.999,-10.999 7.235,0.426 14.289,-5.166 23.997,-4 6.128,0.736 10.623,6.422 15.998,4 -2.473,-2.231 -4.076,-9.409 -3,-11.999 11.14,0.534 10.23,13.103 18,16.997 z m -78.987,3 c 2.293,-1.04 -0.474,-7.14 2,-7.999 -0.147,2.48 -0.186,4.853 2,5 1.912,-5.514 2.068,-17.202 -4,-17.998 -0.389,6.517 -6.568,16.641 0,20.997 z m 6.999,2 c 3.675,1.593 4.673,-7.608 1,-7 0.148,3.073 -3.518,4.497 -1,7 z m 65.988,0.999 c 4.25,0.917 4.27,-2.396 4,-5.999 -4.15,-0.8 -5.85,3.848 -4,5.999 z m -68.987,7 c 1.862,-0.138 3.342,-0.658 4,-2 -1.927,-0.407 -0.79,-3.876 -4,-3 -1.284,1.314 -1.284,3.686 0,5 z m 20.997,5.999 c -16.426,9.683 -1.861,32.926 7.999,39.995 8.798,0.465 16.617,-0.048 21.998,-3 4.204,-10.461 12.957,-16.373 11.998,-31.996 -3.869,-7.406 -17.575,-8.855 -23.997,-3 0.004,-4.003 -0.525,-7.474 -5,-6.999 0.536,6.544 -7.117,4.89 -13.003,5.003 z m -21.997,-2 c 2.244,2.422 4.008,5.324 6.999,6.999 1.626,-3.222 0.478,-5.417 0,-8.999 -2.611,0.39 -5.486,0.514 -6.999,2 z m 230.97,110.98 c 5.831,-11.607 17.725,-22.126 21.997,-31.996 9.601,-0.065 16.955,-2.376 26.997,-2 5.178,2.487 6.458,8.873 11.998,10.998 2.714,-10.396 11.652,-10.813 21.997,-12.998 19.021,-4.017 44.344,-11.051 64.992,-10.998 -10.608,11.722 -21.271,23.39 -30.996,35.995 18.021,-4.977 22.043,-23.951 35.995,-32.996 l 0,26.997 c -17.344,4.653 -40.941,3.052 -45.994,19.997 3.008,4.857 9.415,4.717 13.998,5 10.672,0.659 23.143,-2.278 35.996,-3 0.17,-1.496 -0.357,-3.69 1,-4 -0.182,2.182 0.818,3.182 2.999,3 16.509,-4.155 35.413,-5.916 45.994,-15.998 -9.523,-8.451 -32.469,-7.765 -48.993,-5.999 0.692,-9.037 -3.03,-18.952 0,-26.997 5.547,3.934 10.327,10.349 15.998,14.998 5.234,4.293 12.01,10.95 19.997,8.999 -11.278,-7.719 -21.457,-16.538 -30.996,-25.996 0.309,-3.643 -0.159,-6.508 -1,-8.999 -2.927,0.261 -3.072,-2.261 -5.999,-2 -3.109,0.891 -4.658,3.341 -7.999,3.999 -26.611,2.387 -54.712,8.612 -79.99,8.999 3.998,0.332 5.55,-1.782 9.999,-1 0.424,-4.09 -6.792,-0.54 -6.999,-3.999 3.294,-0.039 7.074,0.409 6.999,-3 -2.18,-3.152 -8.173,-2.492 -12.998,-2.999 -3.395,-2.271 -4.859,-6.473 -11.999,-5 -3.474,5.525 -3.023,14.975 -7.999,18.998 -5.795,0.871 -12.202,1.129 -17.998,2 1.912,-2.422 4.432,-4.235 7.999,-5 -1.734,-4.265 -4.528,-7.469 -5.999,-11.998 8.897,0.897 13.523,-2.475 18.998,-5 6.271,-0.729 13.474,-0.524 14.998,-6 -6.027,-3.429 -15.801,2.66 -21.997,-1 6.281,-1.717 13.531,-2.467 21.997,-2 0.933,4.066 7.991,2.007 10.998,4 -4.258,2.075 -10.906,1.758 -11.998,6.999 5.419,1.381 15.265,0.439 16.998,-4.999 -1.373,-5.096 -4.924,-1.249 -2,-6.999 -38.025,-13.396 -61.91,14.931 -79.99,33.995 1.496,0.171 3.69,-0.356 4,1 -14.401,0.264 -27.913,1.417 -38.995,5 -1.422,3.072 -0.449,4.496 1,6.999 -7.318,9.68 -15.662,18.334 -23.998,26.996 -12.695,-8.635 -25.203,-17.458 -36.995,-26.996 4.507,14.823 4.981,33.68 11.999,45.994 7.307,-3.358 15.021,-6.31 19.998,-11.999 -1.545,2.879 -5.882,4.567 -2,6 2.833,1.044 2.433,-3.878 7.999,-5 -1.112,0.225 1.796,1.955 3,2 2.297,0.086 5.141,-2.243 7,-1 -0.958,-6.593 -7.284,-5.104 -8.999,-3.999 8.31,-7.358 16.521,-20.137 23.997,-24.997 0.78,7.445 -1.407,11.924 -0.999,18.997 -4.111,2.222 -7.883,4.783 -9.999,8.999 1.021,1.993 7.122,-2.104 8.999,1 -7.072,3.612 -27.889,0.283 -33.996,7.999 -5.558,-0.559 -9.537,0.463 -9.999,4.999 6.586,11.274 25.981,7.702 40.995,7 15.002,-0.702 24.535,-1.717 35.995,-4 7.282,-1.45 16.844,-2.201 18.998,-7.999 -0.586,-2.08 -2.102,-3.231 -3,-4.999 -3.155,-0.489 -3.53,1.802 -6.999,1 -5.191,-3.109 -12.984,-4.026 -20.997,-4 -5.896,0.02 -13.197,3.733 -16.998,-1 9.518,0.477 17.474,-2.354 25.997,0 1.884,-1.99 0.938,-4.271 2,-4.999 2.256,3.743 5.53,6.467 10.998,6.999 0.403,-5.271 -8.695,-9.154 -10.998,-14.998 2.34,0.32 1.84,3.49 4.98,3.01 z m -149.98,-22.99 c 10.748,14.916 15.8,35.527 20.998,55.993 6.137,-0.528 14.475,1.144 18.998,-1 -1.296,-17.952 -6.688,-35.165 -10.999,-48.993 -6.119,-19.632 -10.034,-24.878 -26.997,-33.996 -8.86,-4.762 -16.55,-10.313 -24.997,-10.999 7.92,12.75 19.08,22.26 23,39 z m 187.98,-24 c 4.059,2.819 8.309,-1.277 8.999,-5 -3.03,1.64 -6.95,2.38 -9,5 z m -164.98,9 c 10.461,13.344 17.108,30.259 23.997,45.995 2.229,5.091 3.849,12.05 8.999,14.998 1.736,-34.399 -6.005,-59.321 -33.996,-63.992 0.16,1.18 -0.17,2.84 1,3 z m -31,58.99 c 8.026,1.547 6.583,-14.639 7.999,-22.997 1.571,-0.096 3.467,0.134 3,-2 -2.581,-7.085 -4.068,-15.263 -8.999,-19.997 -0.04,15.63 0.6,31.93 -2,45 z m 266.97,-9 c 8.391,6.569 19.678,3.414 29.996,4 10.466,0.594 17.349,3.099 24.997,1.999 6.942,-0.998 12.418,-5.937 19.997,-8.999 6.339,-2.561 12.906,-3.029 17.998,-7.999 1.118,-1.439 1.078,-2.439 -1,-2.999 -20.44,14.21 -61.77,16 -92,14 z m -204.97,15 c -2.518,-4.147 -3.974,-9.358 -8.999,-10.998 -7.034,0.504 -3.233,12.011 -2,15.997 4.753,-0.579 9.22,-1.444 14.998,-0.999 0.96,-3.63 -4.5,-0.84 -4,-4 z m 16.99,5 c 5.291,10.501 19.492,6.666 29.996,7.999 8.398,1.066 15.452,4.251 23.997,3 9.407,-1.377 15.119,-6.562 22.997,-8.999 5.778,-1.788 12.833,-1.545 14.998,-6.999 -24.34,9.34 -64.24,13.26 -92,5 z m -6.99,22 c 0.391,-6.988 4.193,-20.655 -1,-23.997 1.53,8.29 -4.16,18.59 1,24 z m -62,-5 2,0 c 1.84,-4.461 1.086,-14.685 1,-17.997 l -4,0 c 0.84,5.45 -4.03,14.92 1,18 z m 15,-13 c 0.476,4.427 -1.376,4.972 0,7.999 14.069,-1.84 28.95,2.639 41.995,4.999 1.496,-4.113 3.347,-12.271 1,-16.998 -12.5,3.18 -29.19,2.15 -43,4 z m 52.99,13 c 5.179,-0.153 6.852,-3.813 8.999,-6.999 -3.104,-1.895 -6.479,-3.519 -9.999,-4.999 0.37,3.96 -0.91,9.58 1,12 z"
         inkscape:connector-curvature="0" />
      <path
         id="path5998"
         d="m 74.991,40.363 c -1.419,3.458 -1.788,11.032 -6,13.998 -1.429,-4.123 3.697,-10.281 6,-13.998 z"
         inkscape:connector-curvature="0" />
      <path
         id="path6000"
         d="m 82.99,44.362 c -4.402,-0.069 -6.273,2.392 -7.999,5 -1.462,-2.836 5.261,-6.041 8.999,-7 1.505,3.018 -1.939,8.354 -3,11.999 -2.527,-2.593 2.69,-5.926 2,-9.999 z"
         inkscape:connector-curvature="0" />
      <path
         id="path6002"
         d="m 125.98,72.359 c 0.914,-2.719 1.859,2.664 4.999,1 -0.226,1.44 -2.984,0.349 -3,2 -1.44,-0.227 -0.34,-2.985 -2,-3 z"
         inkscape:connector-curvature="0" />
      <path
         id="path6004"
         d="m 345.96,134.35 c 2.721,0.613 3.919,2.747 3.999,6 -1.439,-0.561 -2.439,-1.56 -2.999,-3 -3.71,5.85 -2.59,2.26 -1,-3 z"
         inkscape:connector-curvature="0" />
      <path
         id="path6006"
         d="m 258.97,184.34 c -3.009,-5.372 1.346,-11.963 0,-18.998 4.263,4.188 13.672,13.644 16.998,17.998 0.138,0.181 5.032,5.13 1,2 0.914,0.71 -7.063,-5.325 -7.999,-8.999 -5.53,0.48 -6.92,5.08 -10,8 z"
         inkscape:connector-curvature="0" />
      <path
         id="path6008"
         d="m 0,236.34 c 19.796,-2.867 48.696,3.369 59.993,-7.999 -3.296,4.73 -11.58,9.268 -19.998,12.999 -11.86,5.26 -24.766,11.82 -39.995,7 l 0,-5.999 c 5.837,1.611 13.046,8.671 19.998,2.999 C 14.87,241.8 7.858,240.15 0,239.34 l 0,-3 z"
         inkscape:connector-curvature="0" />
      <path
         id="path6010"
         d="m 125.98,69.359 c 0.223,1.428 4.976,-0.929 7.999,0 0.043,1.71 -0.743,2.589 -2,3 1.286,2.796 2.067,-3.15 5,-2 -2.316,4.684 -2.945,11.053 -7.999,12.999 -7.01,-5.655 -10.71,-14.621 -20.998,-16.998 2.797,3.203 8.08,3.919 8.999,8.999 l -11.999,0 c -1.647,-3.685 -5.942,-4.723 -11.999,-4 -5.759,5.906 -17.586,5.744 -22.997,11.999 5.255,-12.743 13.835,-22.16 28.997,-24.997 -13.518,-2.18 -22.592,8.733 -28.997,16.998 -3.637,-3.337 2.256,-10.063 6,-12.999 11.247,-8.819 39.301,-12.564 47.994,2 -0.449,-3.902 -4.648,-12.669 -5.999,-18.998 5.921,1.204 10.401,5.455 10.999,10.999 0.53,4.915 -4.66,8.687 -3,12.998 z m -1,-13.998 c 0.25,-1.727 -1.883,-5.921 -3,-3 1.89,0.111 0.7,3.306 3,3 z m 3,19.997 c 0.016,-1.651 2.773,-0.56 3,-2 -3.14,1.664 -4.085,-3.719 -4.999,-1 1.66,0.016 0.56,2.774 2,3 z"
         inkscape:connector-curvature="0"
         style="fill:#ffffff" />
      <path
         id="path6012"
         d="m 284.96,185.34 c 2.303,5.844 11.401,9.728 10.998,14.998 -5.468,-0.532 -8.742,-3.256 -10.998,-6.999 -1.062,0.729 -0.116,3.009 -2,4.999 -8.523,-2.354 -16.479,0.477 -25.997,0 3.801,4.733 11.102,1.02 16.998,1 8.013,-0.026 15.806,0.891 20.997,4 3.469,0.802 3.844,-1.489 6.999,-1 0.898,1.768 2.414,2.919 3,4.999 -2.154,5.798 -11.716,6.549 -18.998,7.999 -11.46,2.283 -20.993,3.298 -35.995,4 -15.014,0.702 -34.409,4.274 -40.995,-7 0.462,-4.536 4.441,-5.558 9.999,-4.999 6.107,-7.716 26.924,-4.387 33.996,-7.999 -1.877,-3.104 -7.979,0.993 -8.999,-1 2.116,-4.216 5.888,-6.777 9.999,-8.999 -0.408,-7.073 1.779,-11.552 0.999,-18.997 -7.476,4.86 -15.687,17.639 -23.997,24.997 1.715,-1.104 8.041,-2.594 8.999,3.999 -1.858,-1.243 -4.702,1.086 -7,1 -1.204,-0.045 -4.111,-1.775 -3,-2 -5.566,1.122 -5.167,6.044 -7.999,5 -3.882,-1.433 0.455,-3.121 2,-6 -4.977,5.689 -12.691,8.641 -19.998,11.999 -7.017,-12.314 -7.491,-31.171 -11.999,-45.994 11.792,9.538 24.3,18.361 36.995,26.996 8.336,-8.662 16.68,-17.316 23.998,-26.996 -1.449,-2.503 -2.422,-3.927 -1,-6.999 11.082,-3.583 24.594,-4.736 38.995,-5 -0.31,-1.356 -2.504,-0.829 -4,-1 18.08,-19.064 41.965,-47.392 79.99,-33.995 -2.924,5.75 0.627,1.903 2,6.999 -1.733,5.438 -11.579,6.38 -16.998,4.999 1.092,-5.241 7.74,-4.924 11.998,-6.999 -3.007,-1.992 -10.065,0.067 -10.998,-4 -8.466,-0.467 -15.716,0.283 -21.997,2 6.196,3.659 15.97,-2.429 21.997,1 -1.524,5.475 -8.728,5.271 -14.998,6 -5.475,2.525 -10.101,5.897 -18.998,5 1.471,4.529 4.265,7.733 5.999,11.998 -3.567,0.765 -6.087,2.578 -7.999,5 5.796,-0.871 12.203,-1.129 17.998,-2 4.976,-4.023 4.525,-13.473 7.999,-18.998 7.14,-1.473 8.604,2.729 11.999,5 4.825,0.507 10.818,-0.153 12.998,2.999 0.075,3.409 -3.705,2.961 -6.999,3 0.207,3.459 7.423,-0.091 6.999,3.999 -4.449,-0.782 -6.001,1.332 -9.999,1 25.278,-0.387 53.379,-6.612 79.99,-8.999 3.341,-0.658 4.89,-3.108 7.999,-3.999 2.927,-0.261 3.072,2.261 5.999,2 0.841,2.491 1.309,5.356 1,8.999 9.539,9.458 19.718,18.277 30.996,25.996 -7.987,1.951 -14.763,-4.706 -19.997,-8.999 -5.671,-4.649 -10.451,-11.064 -15.998,-14.998 -3.03,8.045 0.692,17.96 0,26.997 16.524,-1.766 39.47,-2.452 48.993,5.999 -10.581,10.082 -29.485,11.843 -45.994,15.998 -2.181,0.182 -3.181,-0.818 -2.999,-3 -1.357,0.31 -0.83,2.504 -1,4 -12.854,0.722 -25.324,3.659 -35.996,3 -4.583,-0.283 -10.99,-0.143 -13.998,-5 5.053,-16.945 28.65,-15.344 45.994,-19.997 l 0,-26.997 c -13.952,9.045 -17.975,28.02 -35.995,32.996 9.726,-12.605 20.388,-24.273 30.996,-35.995 -20.648,-0.053 -45.971,6.981 -64.992,10.998 -10.345,2.185 -19.283,2.603 -21.997,12.998 -5.54,-2.125 -6.82,-8.511 -11.998,-10.998 -10.042,-0.376 -17.396,1.935 -26.997,2 -4.272,9.87 -16.166,20.389 -21.997,31.996 -3.13,0.46 -2.63,-2.71 -4.99,-3.02 z m 62,-47.99 c 0.56,1.44 1.56,2.439 2.999,3 -0.08,-3.253 -1.278,-5.387 -3.999,-6 -1.59,5.26 -2.71,8.85 1,3 z m 95.98,1 c 2.465,3.208 6.177,-2.331 2,-3 -0.24,1.43 -1.64,1.69 -2,3 z m -91.98,12 c 0.302,-2.634 -1.385,-3.281 -3.999,-2.999 -0.76,3.52 2.61,4.47 4,3 z m -49,-1 c -3.039,0.627 -8.612,-1.28 -9.998,0.999 3.04,-0.63 8.62,1.28 10,-1 z m 5,8 c -3.039,0.627 -8.612,-1.28 -9.999,0.999 3.04,-0.63 8.62,1.28 10,-1 z m -44.99,4 c 2.901,3.765 5.311,8.021 9.999,9.999 1.483,-5.516 7.321,-6.678 8.999,-11.999 -5.6,1.41 -13.26,0.74 -19,2 z m 7,15 c 0.936,3.674 8.913,9.709 7.999,8.999 4.032,3.13 -0.862,-1.819 -1,-2 -3.326,-4.354 -12.735,-13.81 -16.998,-17.998 1.346,7.035 -3.009,13.626 0,18.998 3.08,-2.93 4.47,-7.53 10,-8 z m 178.97,0 c 0.722,3.056 -1.022,3.644 -1,5.999 8.493,-1.16 24.396,-6.42 30.996,0 0.221,-0.778 0.837,-1.162 2,-1 0.77,-10.92 -21.71,-3.94 -32,-5 z m -38.99,10.99 c -0.095,3.804 5.988,6.618 8.998,3.999 -1.121,-0.211 -1.557,-1.109 -1.999,-2 7.735,-2.93 15.437,-5.894 26.996,-4.999 l 0,-4.999 c -12.14,1.87 -24.43,3.58 -34,8 z m -150.98,20 c -0.239,-1.534 -1.646,-0.146 -2,1 1.705,0.41 -0.21,1.289 0,3 10.75,-1.465 26.135,-0.603 34.996,-1 -6.08,-7.64 -21.96,-2.19 -33,-3 z m -14,0 c -10.358,-0.405 -20.141,0.998 -22.998,5.999 1.869,0.798 3.662,1.671 6,2 3.052,0.053 2.398,-3.601 5.999,-3 7.023,-0.685 16.492,0.713 18.998,-2.999 -0.13,-3.62 -5.67,-1.91 -8,-2 z"
         inkscape:connector-curvature="0"
         style="fill:#ffffff" />
      <path
         id="path6014"
         d="m 0,223.34 c 11.779,-1.18 25.918,-1.36 39.995,-2 13.36,-0.606 25.809,-0.872 31.996,1 9.158,-6.23 24.421,-16.222 41.995,-13.998 3.878,0.49 9.17,2.116 11.999,4.999 -6.744,7.154 -15.928,-2.507 -18.998,7.999 9.221,3.444 17.422,7.908 20.997,16.998 2.482,1.185 6.274,1.059 5,5.999 -6.813,2.586 -13.823,-5.716 -12.999,-10.998 0.168,2.168 -3.546,0.453 -4.999,1 0.169,5.829 7.455,4.543 6.999,10.998 -7.626,3.485 -8.011,-4.962 -13.999,-5.999 -2.552,4.347 6.772,4.226 7,8.999 -5.557,4.564 -10.277,-3.369 -16.998,1 -3.461,-4.538 -12.055,-3.943 -16.998,-6.999 -5.05,4.948 -13.619,6.378 -18.998,10.998 -12.579,-0.373 -33.644,0.487 -48.994,0 -3.951,-0.13 -12.039,2.51 -13.002,-3 l 0,-2 c 15.229,4.823 28.135,-1.741 39.995,-6.999 8.417,-3.731 16.701,-8.269 19.998,-12.999 -11.297,11.37 -40.197,5.13 -59.993,8 l 0,-13 z"
         inkscape:connector-curvature="0"
         style="fill:#ffffff" />
    </g>
    <flowRoot
       xml:space="preserve"
       id="flowRoot6128"
       style="fill:black;stroke:none;stroke-opacity:1;stroke-width:1px;stroke-linejoin:miter;stroke-linecap:butt;fill-opacity:1;font-family:sans-serif;font-style:normal;font-weight:normal;font-size:45px;line-height:125%;letter-spacing:0px;word-spacing:0px"><flowRegion
         id="flowRegion6130"><rect
           id="rect6132"
           width="20.583527"
           height="84.392456"
           x="773.94061"
           y="140.99715" /></flowRegion><flowPara
         id="flowPara6134"></flowPara></flowRoot>    <text
       xml:space="preserve"
       style="font-style:normal;font-variant:normal;font-weight:normal;font-stretch:normal;font-size:45px;line-height:125%;font-family:'Liberation Serif';-inkscape-font-specification:'Liberation Serif';letter-spacing:0px;word-spacing:0px;fill:#000000;fill-opacity:1;stroke:none;stroke-width:1px;stroke-linecap:butt;stroke-linejoin:miter;stroke-opacity:1"
       x="50.558289"
       y="689.48468"
       id="text6228"
       sodipodi:linespacing="125%"><tspan
         sodipodi:role="line"
         id="tspan6230"
         x="50.558289"
         y="689.48468"
         style="font-size:25px;fill:#803300;fill-opacity:1">W</tspan></text>
  </g>
</svg>
